<mxfile host="app.diagrams.net" modified="2023-09-01T16:46:54.273Z" agent="Mozilla/5.0 (X11; Linux x86_64; rv:104.0) Gecko/20100101 Firefox/104.0" etag="gT-OaLVU1dL9a4Lnat3C" version="21.7.2" type="github">
  <diagram id="R2lEEEUBdFMjLlhIrx00" name="Page-1">
    <mxGraphModel dx="1434" dy="1818" grid="1" gridSize="10" guides="1" tooltips="1" connect="1" arrows="1" fold="1" page="1" pageScale="1" pageWidth="850" pageHeight="1100" math="0" shadow="0" extFonts="Permanent Marker^https://fonts.googleapis.com/css?family=Permanent+Marker">
      <root>
        <mxCell id="0" />
        <mxCell id="1" parent="0" />
        <mxCell id="Fs7Sn9RMDALEW2iFZP0B-6" value="" style="edgeStyle=orthogonalEdgeStyle;rounded=0;orthogonalLoop=1;jettySize=auto;html=1;" edge="1" parent="1" source="Fs7Sn9RMDALEW2iFZP0B-1" target="Fs7Sn9RMDALEW2iFZP0B-5">
          <mxGeometry relative="1" as="geometry" />
        </mxCell>
        <mxCell id="Fs7Sn9RMDALEW2iFZP0B-19" value="" style="edgeStyle=orthogonalEdgeStyle;rounded=0;orthogonalLoop=1;jettySize=auto;html=1;" edge="1" parent="1" source="Fs7Sn9RMDALEW2iFZP0B-1">
          <mxGeometry relative="1" as="geometry">
            <mxPoint x="180" y="150" as="targetPoint" />
            <Array as="points">
              <mxPoint x="180" y="150" />
              <mxPoint x="181" y="150" />
            </Array>
          </mxGeometry>
        </mxCell>
        <mxCell id="Fs7Sn9RMDALEW2iFZP0B-1" value="escola" style="swimlane;fontStyle=0;childLayout=stackLayout;horizontal=1;startSize=30;horizontalStack=0;resizeParent=1;resizeParentMax=0;resizeLast=0;collapsible=1;marginBottom=0;whiteSpace=wrap;html=1;" vertex="1" parent="1">
          <mxGeometry x="110" y="190" width="140" height="120" as="geometry" />
        </mxCell>
        <mxCell id="Fs7Sn9RMDALEW2iFZP0B-2" value="nome" style="text;strokeColor=none;fillColor=none;align=left;verticalAlign=middle;spacingLeft=4;spacingRight=4;overflow=hidden;points=[[0,0.5],[1,0.5]];portConstraint=eastwest;rotatable=0;whiteSpace=wrap;html=1;" vertex="1" parent="Fs7Sn9RMDALEW2iFZP0B-1">
          <mxGeometry y="30" width="140" height="30" as="geometry" />
        </mxCell>
        <mxCell id="Fs7Sn9RMDALEW2iFZP0B-3" value="cnpj" style="text;strokeColor=none;fillColor=none;align=left;verticalAlign=middle;spacingLeft=4;spacingRight=4;overflow=hidden;points=[[0,0.5],[1,0.5]];portConstraint=eastwest;rotatable=0;whiteSpace=wrap;html=1;" vertex="1" parent="Fs7Sn9RMDALEW2iFZP0B-1">
          <mxGeometry y="60" width="140" height="30" as="geometry" />
        </mxCell>
        <mxCell id="Fs7Sn9RMDALEW2iFZP0B-4" value="endereÃ§o" style="text;strokeColor=none;fillColor=none;align=left;verticalAlign=middle;spacingLeft=4;spacingRight=4;overflow=hidden;points=[[0,0.5],[1,0.5]];portConstraint=eastwest;rotatable=0;whiteSpace=wrap;html=1;" vertex="1" parent="Fs7Sn9RMDALEW2iFZP0B-1">
          <mxGeometry y="90" width="140" height="30" as="geometry" />
        </mxCell>
        <mxCell id="Fs7Sn9RMDALEW2iFZP0B-8" value="" style="edgeStyle=orthogonalEdgeStyle;rounded=0;orthogonalLoop=1;jettySize=auto;html=1;" edge="1" parent="1" source="Fs7Sn9RMDALEW2iFZP0B-5">
          <mxGeometry relative="1" as="geometry">
            <mxPoint x="450" y="250" as="targetPoint" />
          </mxGeometry>
        </mxCell>
        <mxCell id="Fs7Sn9RMDALEW2iFZP0B-5" value="ter" style="rhombus;whiteSpace=wrap;html=1;fontStyle=0;startSize=30;" vertex="1" parent="1">
          <mxGeometry x="310" y="210" width="80" height="80" as="geometry" />
        </mxCell>
        <mxCell id="Fs7Sn9RMDALEW2iFZP0B-13" value="1" style="text;html=1;align=center;verticalAlign=middle;resizable=0;points=[];autosize=1;strokeColor=none;fillColor=none;" vertex="1" parent="1">
          <mxGeometry x="265" y="228" width="30" height="30" as="geometry" />
        </mxCell>
        <mxCell id="Fs7Sn9RMDALEW2iFZP0B-14" value="&lt;div&gt;&lt;br&gt;&lt;/div&gt;&lt;div&gt;n&lt;/div&gt;" style="text;html=1;align=center;verticalAlign=middle;resizable=0;points=[];autosize=1;strokeColor=none;fillColor=none;" vertex="1" parent="1">
          <mxGeometry x="405" y="213" width="30" height="40" as="geometry" />
        </mxCell>
        <mxCell id="Fs7Sn9RMDALEW2iFZP0B-46" value="" style="edgeStyle=orthogonalEdgeStyle;rounded=0;orthogonalLoop=1;jettySize=auto;html=1;" edge="1" parent="1" source="Fs7Sn9RMDALEW2iFZP0B-20" target="Fs7Sn9RMDALEW2iFZP0B-45">
          <mxGeometry relative="1" as="geometry" />
        </mxCell>
        <mxCell id="Fs7Sn9RMDALEW2iFZP0B-20" value="ter" style="rhombus;whiteSpace=wrap;html=1;" vertex="1" parent="1">
          <mxGeometry x="140" y="70" width="80" height="80" as="geometry" />
        </mxCell>
        <mxCell id="Fs7Sn9RMDALEW2iFZP0B-45" value="telefone" style="whiteSpace=wrap;html=1;" vertex="1" parent="1">
          <mxGeometry x="120" y="-40" width="120" height="60" as="geometry" />
        </mxCell>
        <mxCell id="Fs7Sn9RMDALEW2iFZP0B-49" value="" style="edgeStyle=orthogonalEdgeStyle;rounded=0;orthogonalLoop=1;jettySize=auto;html=1;" edge="1" parent="1" source="Fs7Sn9RMDALEW2iFZP0B-47" target="Fs7Sn9RMDALEW2iFZP0B-48">
          <mxGeometry relative="1" as="geometry" />
        </mxCell>
        <mxCell id="Fs7Sn9RMDALEW2iFZP0B-47" value="turma" style="rounded=0;whiteSpace=wrap;html=1;" vertex="1" parent="1">
          <mxGeometry x="440" y="220" width="120" height="60" as="geometry" />
        </mxCell>
        <mxCell id="Fs7Sn9RMDALEW2iFZP0B-51" value="" style="edgeStyle=orthogonalEdgeStyle;rounded=0;orthogonalLoop=1;jettySize=auto;html=1;" edge="1" parent="1" source="Fs7Sn9RMDALEW2iFZP0B-48">
          <mxGeometry relative="1" as="geometry">
            <mxPoint x="500" y="20" as="targetPoint" />
          </mxGeometry>
        </mxCell>
        <mxCell id="Fs7Sn9RMDALEW2iFZP0B-57" value="" style="edgeStyle=orthogonalEdgeStyle;rounded=0;orthogonalLoop=1;jettySize=auto;html=1;" edge="1" parent="1" source="Fs7Sn9RMDALEW2iFZP0B-48">
          <mxGeometry relative="1" as="geometry">
            <mxPoint x="400" y="110" as="targetPoint" />
          </mxGeometry>
        </mxCell>
        <mxCell id="Fs7Sn9RMDALEW2iFZP0B-59" value="" style="edgeStyle=orthogonalEdgeStyle;rounded=0;orthogonalLoop=1;jettySize=auto;html=1;" edge="1" parent="1" source="Fs7Sn9RMDALEW2iFZP0B-48">
          <mxGeometry relative="1" as="geometry">
            <mxPoint x="600" y="110" as="targetPoint" />
          </mxGeometry>
        </mxCell>
        <mxCell id="Fs7Sn9RMDALEW2iFZP0B-48" value="ter" style="rhombus;whiteSpace=wrap;html=1;rounded=0;" vertex="1" parent="1">
          <mxGeometry x="460" y="70" width="80" height="80" as="geometry" />
        </mxCell>
        <mxCell id="Fs7Sn9RMDALEW2iFZP0B-61" value="&lt;div&gt;&lt;br&gt;&lt;/div&gt;&lt;div&gt;n&lt;/div&gt;" style="text;html=1;align=center;verticalAlign=middle;resizable=0;points=[];autosize=1;strokeColor=none;fillColor=none;" vertex="1" parent="1">
          <mxGeometry x="560" y="75" width="30" height="40" as="geometry" />
        </mxCell>
        <mxCell id="Fs7Sn9RMDALEW2iFZP0B-62" value="n" style="text;html=1;align=center;verticalAlign=middle;resizable=0;points=[];autosize=1;strokeColor=none;fillColor=none;" vertex="1" parent="1">
          <mxGeometry x="404" y="86" width="30" height="30" as="geometry" />
        </mxCell>
        <mxCell id="Fs7Sn9RMDALEW2iFZP0B-63" value="1" style="text;html=1;align=center;verticalAlign=middle;resizable=0;points=[];autosize=1;strokeColor=none;fillColor=none;" vertex="1" parent="1">
          <mxGeometry x="495" y="198" width="30" height="30" as="geometry" />
        </mxCell>
        <mxCell id="Fs7Sn9RMDALEW2iFZP0B-64" value="n" style="text;html=1;align=center;verticalAlign=middle;resizable=0;points=[];autosize=1;strokeColor=none;fillColor=none;" vertex="1" parent="1">
          <mxGeometry x="495" y="18" width="30" height="30" as="geometry" />
        </mxCell>
        <mxCell id="Fs7Sn9RMDALEW2iFZP0B-65" value="1" style="text;html=1;align=center;verticalAlign=middle;resizable=0;points=[];autosize=1;strokeColor=none;fillColor=none;" vertex="1" parent="1">
          <mxGeometry x="175" y="168" width="30" height="30" as="geometry" />
        </mxCell>
        <mxCell id="Fs7Sn9RMDALEW2iFZP0B-66" value="n" style="text;html=1;align=center;verticalAlign=middle;resizable=0;points=[];autosize=1;strokeColor=none;fillColor=none;" vertex="1" parent="1">
          <mxGeometry x="175" y="18" width="30" height="30" as="geometry" />
        </mxCell>
        <mxCell id="Fs7Sn9RMDALEW2iFZP0B-67" value="aluno" style="swimlane;fontStyle=0;childLayout=stackLayout;horizontal=1;startSize=30;horizontalStack=0;resizeParent=1;resizeParentMax=0;resizeLast=0;collapsible=1;marginBottom=0;whiteSpace=wrap;html=1;" vertex="1" parent="1">
          <mxGeometry x="434" y="-100" width="140" height="120" as="geometry" />
        </mxCell>
        <mxCell id="Fs7Sn9RMDALEW2iFZP0B-68" value="nome" style="text;strokeColor=none;fillColor=none;align=left;verticalAlign=middle;spacingLeft=4;spacingRight=4;overflow=hidden;points=[[0,0.5],[1,0.5]];portConstraint=eastwest;rotatable=0;whiteSpace=wrap;html=1;" vertex="1" parent="Fs7Sn9RMDALEW2iFZP0B-67">
          <mxGeometry y="30" width="140" height="30" as="geometry" />
        </mxCell>
        <mxCell id="Fs7Sn9RMDALEW2iFZP0B-69" value="idade" style="text;strokeColor=none;fillColor=none;align=left;verticalAlign=middle;spacingLeft=4;spacingRight=4;overflow=hidden;points=[[0,0.5],[1,0.5]];portConstraint=eastwest;rotatable=0;whiteSpace=wrap;html=1;" vertex="1" parent="Fs7Sn9RMDALEW2iFZP0B-67">
          <mxGeometry y="60" width="140" height="30" as="geometry" />
        </mxCell>
        <mxCell id="Fs7Sn9RMDALEW2iFZP0B-70" value="RG / CPF" style="text;strokeColor=none;fillColor=none;align=left;verticalAlign=middle;spacingLeft=4;spacingRight=4;overflow=hidden;points=[[0,0.5],[1,0.5]];portConstraint=eastwest;rotatable=0;whiteSpace=wrap;html=1;" vertex="1" parent="Fs7Sn9RMDALEW2iFZP0B-67">
          <mxGeometry y="90" width="140" height="30" as="geometry" />
        </mxCell>
        <mxCell id="Fs7Sn9RMDALEW2iFZP0B-71" value="sala" style="swimlane;fontStyle=0;childLayout=stackLayout;horizontal=1;startSize=30;horizontalStack=0;resizeParent=1;resizeParentMax=0;resizeLast=0;collapsible=1;marginBottom=0;whiteSpace=wrap;html=1;" vertex="1" parent="1">
          <mxGeometry x="600" y="50" width="140" height="120" as="geometry" />
        </mxCell>
        <mxCell id="Fs7Sn9RMDALEW2iFZP0B-72" value="lousa" style="text;strokeColor=none;fillColor=none;align=left;verticalAlign=middle;spacingLeft=4;spacingRight=4;overflow=hidden;points=[[0,0.5],[1,0.5]];portConstraint=eastwest;rotatable=0;whiteSpace=wrap;html=1;" vertex="1" parent="Fs7Sn9RMDALEW2iFZP0B-71">
          <mxGeometry y="30" width="140" height="30" as="geometry" />
        </mxCell>
        <mxCell id="Fs7Sn9RMDALEW2iFZP0B-73" value="mesas" style="text;strokeColor=none;fillColor=none;align=left;verticalAlign=middle;spacingLeft=4;spacingRight=4;overflow=hidden;points=[[0,0.5],[1,0.5]];portConstraint=eastwest;rotatable=0;whiteSpace=wrap;html=1;" vertex="1" parent="Fs7Sn9RMDALEW2iFZP0B-71">
          <mxGeometry y="60" width="140" height="30" as="geometry" />
        </mxCell>
        <mxCell id="Fs7Sn9RMDALEW2iFZP0B-74" value="cadeiras" style="text;strokeColor=none;fillColor=none;align=left;verticalAlign=middle;spacingLeft=4;spacingRight=4;overflow=hidden;points=[[0,0.5],[1,0.5]];portConstraint=eastwest;rotatable=0;whiteSpace=wrap;html=1;" vertex="1" parent="Fs7Sn9RMDALEW2iFZP0B-71">
          <mxGeometry y="90" width="140" height="30" as="geometry" />
        </mxCell>
        <mxCell id="Fs7Sn9RMDALEW2iFZP0B-75" value="professor" style="swimlane;fontStyle=0;childLayout=stackLayout;horizontal=1;startSize=30;horizontalStack=0;resizeParent=1;resizeParentMax=0;resizeLast=0;collapsible=1;marginBottom=0;whiteSpace=wrap;html=1;" vertex="1" parent="1">
          <mxGeometry x="260" y="48" width="140" height="120" as="geometry" />
        </mxCell>
        <mxCell id="Fs7Sn9RMDALEW2iFZP0B-76" value="nome" style="text;strokeColor=none;fillColor=none;align=left;verticalAlign=middle;spacingLeft=4;spacingRight=4;overflow=hidden;points=[[0,0.5],[1,0.5]];portConstraint=eastwest;rotatable=0;whiteSpace=wrap;html=1;" vertex="1" parent="Fs7Sn9RMDALEW2iFZP0B-75">
          <mxGeometry y="30" width="140" height="30" as="geometry" />
        </mxCell>
        <mxCell id="Fs7Sn9RMDALEW2iFZP0B-77" value="idade" style="text;strokeColor=none;fillColor=none;align=left;verticalAlign=middle;spacingLeft=4;spacingRight=4;overflow=hidden;points=[[0,0.5],[1,0.5]];portConstraint=eastwest;rotatable=0;whiteSpace=wrap;html=1;" vertex="1" parent="Fs7Sn9RMDALEW2iFZP0B-75">
          <mxGeometry y="60" width="140" height="30" as="geometry" />
        </mxCell>
        <mxCell id="Fs7Sn9RMDALEW2iFZP0B-78" value="RG / CPF" style="text;strokeColor=none;fillColor=none;align=left;verticalAlign=middle;spacingLeft=4;spacingRight=4;overflow=hidden;points=[[0,0.5],[1,0.5]];portConstraint=eastwest;rotatable=0;whiteSpace=wrap;html=1;" vertex="1" parent="Fs7Sn9RMDALEW2iFZP0B-75">
          <mxGeometry y="90" width="140" height="30" as="geometry" />
        </mxCell>
      </root>
    </mxGraphModel>
  </diagram>
</mxfile>
